<svg width="76" height="61" viewBox="0 0 76 61" fill="none" xmlns="http://www.w3.org/2000/svg">
<g clip-path="url(#clip0_1_359)">
<path d="M13.8979 60.868V56.8604C13.8979 55.3274 12.9977 54.3236 11.4521 54.3236C10.6794 54.3236 9.83917 54.5881 9.26149 55.4596C8.81135 54.7282 8.16614 54.3236 7.19834 54.3236C6.55315 54.3236 5.90794 54.5259 5.39778 55.2573V54.4558H4.04736V60.868H5.39778V57.3273C5.39778 56.1912 5.97546 55.6543 6.87574 55.6543C7.77602 55.6543 8.22616 56.2534 8.22616 57.3273V60.868H9.57658V57.3273C9.57658 56.1912 10.2218 55.6543 11.0545 55.6543C11.9548 55.6543 12.405 56.2534 12.405 57.3273V60.868H13.8979ZM33.9292 54.4558H31.7385V52.5182H30.388V54.4558H29.1652V55.7242H30.388V58.6658C30.388 60.1365 30.9657 61.0003 32.5113 61.0003C33.0889 61.0003 33.7341 60.798 34.1843 60.5334L33.7941 59.3272C33.404 59.5917 32.9538 59.6618 32.6312 59.6618C31.9861 59.6618 31.731 59.2571 31.731 58.5957V55.7242H33.9217V54.4558H33.9292ZM45.3927 54.3157C44.6199 54.3157 44.1024 54.7204 43.7798 55.2495V54.448H42.4293V60.8602H43.7798V57.2495C43.7798 56.1834 44.2299 55.5764 45.0701 55.5764C45.3252 55.5764 45.6478 55.6464 45.9104 55.7087L46.3005 54.3703C46.0305 54.3157 45.6478 54.3157 45.3927 54.3157ZM28.0698 54.985C27.4247 54.5181 26.5244 54.3157 25.5566 54.3157C24.0111 54.3157 22.9833 55.1172 22.9833 56.3857C22.9833 57.4518 23.756 58.0588 25.1065 58.2533L25.7516 58.3234C26.4568 58.4556 26.847 58.658 26.847 58.9926C26.847 59.4594 26.3293 59.7942 25.4291 59.7942C24.5287 59.7942 23.816 59.4594 23.3658 59.1248L22.7207 60.191C23.4259 60.7279 24.3937 60.9925 25.3616 60.9925C27.1621 60.9925 28.1973 60.1209 28.1973 58.9225C28.1973 57.7864 27.3572 57.1872 26.0742 56.9849L25.4291 56.9148C24.8514 56.8449 24.4012 56.7125 24.4012 56.3156C24.4012 55.8488 24.8514 55.5842 25.5641 55.5842C26.3368 55.5842 27.1096 55.9188 27.4997 56.1211L28.0698 54.985ZM63.9985 54.3157C63.2259 54.3157 62.7082 54.7204 62.3856 55.2495V54.448H61.0351V60.8602H62.3856V57.2495C62.3856 56.1834 62.8357 55.5764 63.6759 55.5764C63.931 55.5764 64.2536 55.6464 64.5162 55.7087L64.9063 54.3858C64.6437 54.3157 64.2611 54.3157 63.9985 54.3157ZM46.7432 57.6619C46.7432 59.5995 48.0336 61.0003 50.0292 61.0003C50.9295 61.0003 51.5747 60.798 52.2198 60.2687L51.5746 59.1327C51.057 59.5373 50.5469 59.7318 49.9617 59.7318C48.8664 59.7318 48.0936 58.9303 48.0936 57.6619C48.0936 56.4557 48.8664 55.6543 49.9617 55.5919C50.5394 55.5919 51.057 55.7943 51.5746 56.1912L52.2198 55.055C51.5747 54.5181 50.9295 54.3236 50.0292 54.3236C48.0336 54.3157 46.7432 55.7242 46.7432 57.6619ZM59.2345 57.6619V54.4558H57.8842V55.2573C57.434 54.6582 56.7888 54.3236 55.9486 54.3236C54.208 54.3236 52.8576 55.7242 52.8576 57.6619C52.8576 59.5995 54.208 61.0003 55.9486 61.0003C56.8488 61.0003 57.494 60.6657 57.8842 60.0664V60.868H59.2345V57.6619ZM54.2755 57.6619C54.2755 56.5258 54.9807 55.5919 56.1436 55.5919C57.2389 55.5919 58.0117 56.4636 58.0117 57.6619C58.0117 58.7981 57.2389 59.7318 56.1436 59.7318C54.9882 59.6618 54.2755 58.7902 54.2755 57.6619ZM38.1155 54.3157C36.3149 54.3157 35.0246 55.6543 35.0246 57.6542C35.0246 59.6618 36.3149 60.9925 38.183 60.9925C39.0833 60.9925 39.9835 60.7279 40.6963 60.1209L40.051 59.1171C39.5335 59.5218 38.8882 59.7863 38.2505 59.7863C37.4103 59.7863 36.5775 59.3817 36.3824 58.2533H40.9514C40.9514 58.051 40.9514 57.9187 40.9514 57.7164C41.0114 55.6543 39.8485 54.3157 38.1155 54.3157ZM38.1155 55.5219C38.9557 55.5219 39.5335 56.0588 39.661 57.0549H36.4425C36.57 56.1912 37.1477 55.5219 38.1155 55.5219ZM71.6659 57.6619V51.9189H70.3156V55.2573C69.8654 54.6582 69.2202 54.3236 68.3799 54.3236C66.6394 54.3236 65.289 55.7242 65.289 57.6619C65.289 59.5995 66.6394 61.0003 68.3799 61.0003C69.2802 61.0003 69.9254 60.6657 70.3156 60.0664V60.868H71.6659V57.6619ZM66.7069 57.6619C66.7069 56.5258 67.4121 55.5919 68.5749 55.5919C69.6703 55.5919 70.443 56.4636 70.443 57.6619C70.443 58.7981 69.6703 59.7318 68.5749 59.7318C67.4121 59.6618 66.7069 58.7902 66.7069 57.6619ZM21.4978 57.6619V54.4558H20.1474V55.2573C19.6972 54.6582 19.052 54.3236 18.2118 54.3236C16.4712 54.3236 15.1208 55.7242 15.1208 57.6619C15.1208 59.5995 16.4712 61.0003 18.2118 61.0003C19.112 61.0003 19.7573 60.6657 20.1474 60.0664V60.868H21.4978V57.6619ZM16.4787 57.6619C16.4787 56.5258 17.184 55.5919 18.3469 55.5919C19.4421 55.5919 20.2149 56.4636 20.2149 57.6619C20.2149 58.7981 19.4421 59.7318 18.3469 59.7318C17.184 59.6618 16.4787 58.7902 16.4787 57.6619Z" fill="#ECECEC"/>
<path d="M47.9059 5.75732H27.6196V43.5613H47.9059V5.75732Z" fill="#FF5A00"/>
<path d="M28.9701 24.6591C28.9701 16.9784 32.4511 10.1615 37.7928 5.75705C33.8615 2.55095 28.9026 0.613281 23.4934 0.613281C10.6794 0.613281 0.311157 11.3677 0.311157 24.6591C0.311157 37.9503 10.6794 48.7048 23.4934 48.7048C28.9026 48.7048 33.8615 46.7671 37.7928 43.561C32.4437 39.2188 28.9701 32.3396 28.9701 24.6591Z" fill="#EB001B"/>
<path d="M75.2744 24.6591C75.2744 37.9503 64.9061 48.7048 52.0922 48.7048C46.683 48.7048 41.7239 46.7671 37.7927 43.561C43.2018 39.1488 46.6154 32.3396 46.6154 24.6591C46.6154 16.9784 43.1343 10.1615 37.7927 5.75705C41.7164 2.55095 46.6755 0.613281 52.0847 0.613281C64.9061 0.613281 75.2744 11.4378 75.2744 24.6591Z" fill="#F79E1B"/>
</g>
<defs>
<clipPath id="clip0_1_359">
<rect width="76" height="61" fill="white"/>
</clipPath>
</defs>
</svg>
