<svg width="119" height="37" viewBox="0 0 119 37" fill="none" xmlns="http://www.w3.org/2000/svg">
<path d="M51.7473 36.1591H42.2913L48.2057 1.15674H57.6612L51.7473 36.1591Z" fill="#1434CB"/>
<path d="M86.0262 2.01264C84.1611 1.30443 81.2028 0.522461 77.5449 0.522461C68.2068 0.522461 61.631 5.28849 61.5906 12.1025C61.5131 17.1298 66.2988 19.9221 69.8781 21.5984C73.5365 23.3113 74.7801 24.4293 74.7801 25.9562C74.7428 28.301 71.8239 29.3819 69.1014 29.3819C65.3261 29.3819 63.3032 28.8246 60.2292 27.52L58.984 26.9608L57.6608 34.818C59.8786 35.7851 63.9646 36.6432 68.2068 36.6809C78.1288 36.6809 84.5882 31.9886 84.6647 24.7273C84.7024 20.7427 82.1754 17.6895 76.7274 15.1947C73.4201 13.5931 71.3946 12.5132 71.3946 10.8746C71.4334 9.38489 73.1077 7.85908 76.8412 7.85908C79.9153 7.78434 82.1739 8.49158 83.885 9.1993L84.7401 9.57098L86.0262 2.01264Z" fill="#1434CB"/>
<path d="M98.5939 23.7589C99.3726 21.7481 102.369 13.9657 102.369 13.9657C102.33 14.0404 103.146 11.9177 103.613 10.6145L104.274 13.6306C104.274 13.6306 106.065 22.009 106.454 23.7589C104.976 23.7589 100.462 23.7589 98.5939 23.7589ZM110.266 1.15674H102.952C100.696 1.15674 98.9827 1.78924 98.0095 4.0609L83.9639 36.1585H93.8857C93.8857 36.1585 95.5193 31.8385 95.8704 30.908C96.9588 30.908 106.611 30.908 108.011 30.908C108.283 32.1369 109.139 36.1585 109.139 36.1585H117.895L110.266 1.15674Z" fill="#1434CB"/>
<path d="M34.3934 1.15674L25.1329 25.025L24.1209 20.1842C22.4088 14.5986 17.0394 8.52998 11.0474 5.51248L19.5296 36.1219H29.5291L44.3924 1.15674H34.3934Z" fill="#1434CB"/>
<path d="M16.5336 1.15674H1.31989L1.16425 1.86397C13.032 4.76862 20.8916 11.7702 24.1209 20.1857L20.8136 4.09901C20.2691 1.86348 18.5958 1.23048 16.5336 1.15674Z" fill="#1434CB"/>
</svg>
